<?xml version="1.0" standalone="no"?>
<!DOCTYPE svg PUBLIC "-//W3C//DTD SVG 20010904//EN"
 "http://www.w3.org/TR/2001/REC-SVG-20010904/DTD/svg10.dtd">
<svg version="1.0" xmlns="http://www.w3.org/2000/svg"
 width="700.000000pt" height="700.000000pt" viewBox="0 0 700.000000 700.000000"
 preserveAspectRatio="xMidYMid meet">
<metadata>
Created by potrace 1.14, written by Peter Selinger 2001-2017
</metadata>
<g transform="translate(0.000000,700.000000) scale(0.100000,-0.100000)"
fill="#000000" stroke="none">
<path d="M1101 5379 c-24 -5 -48 -6 -52 -3 -5 3 -9 1 -9 -3 0 -9 -100 -48
-113 -45 -5 2 -6 -2 -2 -8 6 -10 -9 -15 -30 -10 -5 1 -7 -1 -4 -5 4 -3 -13
-26 -36 -51 -50 -52 -94 -170 -97 -256 -1 -29 -6 -59 -12 -67 -8 -11 -8 -13 0
-8 17 10 12 -106 -6 -121 -13 -11 -13 -11 0 -7 13 4 15 -8 15 -77 0 -61 -4
-87 -15 -96 -13 -12 -13 -13 2 -8 14 4 17 0 15 -17 -1 -12 -9 -28 -17 -35 -13
-11 -13 -11 0 -7 23 8 22 -214 0 -233 -13 -11 -13 -11 0 -7 13 4 15 -8 15 -77
0 -61 -4 -87 -15 -96 -13 -12 -13 -13 2 -8 14 4 17 0 15 -17 -1 -12 -9 -28
-17 -35 -13 -11 -13 -11 1 -7 14 5 15 -7 12 -95 -3 -106 -22 -167 -48 -156 -9
3 -12 0 -9 -9 7 -17 -42 -28 -132 -28 l-64 0 -1 -46 c-4 -185 -3 -274 2 -282
3 -6 3 -30 -1 -54 -5 -35 -3 -46 12 -59 10 -9 18 -12 18 -7 0 5 31 9 70 9 39
0 70 -5 70 -10 0 -5 4 -7 8 -4 15 9 50 -23 61 -57 18 -55 19 -160 1 -175 -13
-12 -13 -13 3 -8 12 4 17 0 17 -14 0 -10 -5 -22 -10 -25 -6 -4 -7 -12 -3 -18
12 -20 9 -62 -7 -75 -13 -11 -13 -11 0 -7 12 4 15 -4 15 -42 0 -27 -4 -54 -9
-62 -6 -9 -5 -12 1 -8 16 10 10 -106 -7 -121 -13 -11 -13 -11 0 -7 13 4 15 -8
15 -77 0 -61 -4 -87 -15 -96 -13 -12 -13 -13 1 -9 13 4 17 -1 15 -26 0 -18 -8
-38 -16 -45 -13 -12 -13 -13 3 -8 20 6 20 6 7 -29 -7 -17 -7 -24 0 -20 6 3 10
1 10 -4 0 -6 -5 -11 -11 -11 -6 0 -7 -5 -2 -12 12 -20 9 -42 -7 -56 -13 -11
-13 -11 0 -7 13 4 15 -6 15 -60 0 -36 -3 -65 -6 -65 -13 0 -17 -27 -7 -41 8
-11 9 -11 4 3 -3 10 -1 20 4 23 15 9 12 -59 -3 -74 -10 -10 -9 -12 1 -9 9 2
19 -16 28 -52 8 -30 16 -61 19 -68 2 -7 4 -15 5 -17 0 -3 9 -15 21 -28 34 -36
40 -53 24 -67 -8 -7 -15 -16 -15 -21 0 -5 9 0 21 12 24 24 38 18 18 -8 -13
-16 -12 -17 3 -5 21 17 39 7 32 -16 -5 -14 -4 -15 5 -2 10 13 13 13 25 -2 7
-10 15 -15 18 -12 8 7 58 -18 59 -30 1 -6 1 -18 0 -26 0 -9 2 -10 5 -3 3 6 17
9 32 7 20 -3 23 -2 12 5 -8 5 -17 8 -21 5 -4 -2 -11 1 -15 7 -5 9 0 10 17 6
13 -4 57 -12 97 -19 39 -6 72 -16 72 -21 0 -4 5 -5 10 -2 6 4 7 11 4 17 -5 7
-2 8 7 2 8 -5 22 -7 33 -5 10 1 16 -1 13 -7 -4 -5 0 -9 8 -9 8 0 12 3 10 7 -2
3 25 7 61 7 35 0 64 -3 64 -7 0 -4 12 -12 28 -19 l27 -12 -24 19 -24 20 26 0
c15 0 24 -4 21 -9 -3 -5 0 -9 5 -9 6 0 11 5 11 10 0 6 9 10 20 10 11 0 20 -4
20 -10 0 -5 5 -10 11 -10 5 0 8 4 4 9 -6 11 94 9 112 -2 9 -6 12 54 13 248 l1
255 -48 0 c-26 0 -112 1 -190 2 l-141 1 0 478 c0 263 -3 482 -6 488 -4 5 -2
13 4 16 8 5 7 11 -1 21 -6 8 -9 14 -6 14 10 0 -24 94 -50 139 -15 25 -26 51
-24 56 1 6 0 7 -4 3 -4 -4 -13 -1 -20 6 -7 7 -28 25 -46 40 -26 22 -30 29 -18
37 10 6 5 8 -16 6 -40 -3 -46 27 -8 47 15 8 41 26 57 40 16 14 34 26 39 26 6
0 7 3 4 7 -11 10 22 41 41 38 9 -1 11 0 5 2 -18 6 -16 23 1 23 8 0 18 4 21 10
4 6 -1 7 -12 3 -15 -5 -16 -3 -5 8 6 7 12 21 12 31 0 10 5 18 11 18 5 0 7 5 4
11 -4 6 1 17 11 25 11 9 13 13 7 9 -9 -4 -13 2 -13 19 0 18 5 26 18 26 11 0
13 3 5 8 -17 11 -12 178 5 174 8 -1 11 2 7 8 -3 6 -10 8 -15 5 -4 -3 -7 48 -7
112 2 92 5 117 15 115 8 -1 11 2 7 8 -3 6 -10 8 -15 5 -4 -3 -7 48 -7 112 2
92 5 117 15 115 8 -1 11 2 7 8 -3 6 -10 8 -15 5 -4 -3 -8 69 -8 160 1 91 4
165 7 166 3 0 14 2 24 4 21 4 21 1 1 -20 -9 -9 -13 -19 -9 -23 3 -4 11 1 16
11 6 9 15 15 20 12 5 -4 7 -10 4 -15 -3 -4 3 -7 12 -6 10 2 20 11 23 22 4 17
14 19 75 18 122 -3 117 -2 110 -24 -4 -11 -2 -20 4 -20 6 0 10 3 10 8 -5 30 3
38 39 37 l37 0 3 248 2 248 -262 -2 c-145 -1 -283 -6 -307 -10z m276 -501 c2
-16 -1 -17 -13 -8 -18 15 -18 27 -1 27 7 0 14 -9 14 -19z"/>
<path d="M5329 5333 c0 -32 0 -86 1 -120 1 -45 -2 -63 -11 -63 -7 0 -4 -6 7
-15 12 -9 14 -14 6 -15 -7 0 -10 -5 -6 -11 12 -20 6 -169 -8 -187 -9 -11 -10
-14 0 -8 8 4 12 1 12 -9 0 -11 5 -15 16 -11 8 3 12 2 9 -4 -3 -6 -1 -10 4 -10
6 0 11 5 11 12 0 6 7 3 15 -8 9 -11 13 -13 10 -4 -5 13 16 15 147 13 84 -1
156 -2 161 -2 4 -1 7 -224 7 -497 0 -393 -3 -494 -12 -488 -8 5 -7 1 2 -10 15
-19 19 -33 23 -83 1 -17 4 -29 6 -27 7 7 61 -98 55 -107 -3 -5 1 -7 8 -4 7 3
22 -8 33 -24 10 -16 22 -28 25 -26 4 2 21 -9 39 -25 17 -16 34 -29 37 -29 3 0
8 -2 11 -5 8 -8 -59 -46 -70 -39 -6 3 -7 1 -4 -4 9 -14 -29 -47 -44 -37 -7 4
-10 3 -6 -3 4 -6 -4 -23 -17 -38 -29 -33 -66 -106 -66 -129 0 -9 -4 -16 -9
-16 -4 0 -6 -11 -3 -25 2 -14 0 -25 -4 -25 -5 0 -8 -225 -6 -505 l2 -504 -152
0 c-84 0 -169 0 -189 -1 -33 0 -37 -3 -41 -30 -3 -17 -1 -30 4 -30 5 0 4 -9
-2 -20 -6 -11 -7 -20 -3 -20 4 0 7 -43 5 -95 -2 -62 -7 -95 -15 -95 -6 0 -2
-7 9 -15 13 -10 14 -14 5 -15 -11 0 -11 -3 -1 -15 12 -14 7 -20 -15 -15 -5 1
-4 -4 3 -11 7 -8 12 -38 12 -71 0 -63 2 -64 78 -58 12 1 22 -4 22 -10 0 -7 5
-8 13 -3 16 10 137 14 137 4 0 -4 12 -13 28 -20 l27 -12 -24 19 -24 20 26 0
c15 0 24 -4 21 -9 -3 -5 0 -9 5 -9 6 0 11 5 11 10 0 6 9 10 20 10 11 0 20 -4
20 -10 0 -5 5 -10 11 -10 5 0 8 4 5 9 -3 5 13 9 36 9 24 1 45 -4 49 -9 4 -7
11 -6 20 3 18 17 45 16 41 -1 -1 -7 2 -10 8 -6 6 3 8 11 5 16 -9 13 9 11 24
-3 11 -10 12 -10 7 -1 -5 9 -2 11 8 7 9 -3 13 -11 9 -18 -3 -6 0 -5 8 2 12 11
12 14 -1 23 -12 8 -11 9 5 7 13 -3 19 -11 18 -23 -1 -11 0 -14 3 -7 3 6 11 9
17 5 7 -4 6 1 -2 10 -8 10 -11 20 -7 24 3 4 13 -2 21 -13 13 -18 14 -18 8 4
-5 22 -4 23 40 26 6 1 17 8 24 16 7 8 13 11 13 6 0 -6 7 -1 15 10 8 10 15 15
15 11 0 -4 14 8 31 28 17 19 35 33 39 30 5 -3 12 0 16 6 5 8 3 9 -6 4 -8 -5
-11 -3 -8 6 3 8 10 13 16 12 7 -2 9 4 5 14 -4 11 -3 14 5 9 8 -5 10 -2 6 8 -4
10 -1 16 7 16 7 0 10 3 6 6 -3 3 0 22 8 43 24 68 26 123 26 670 -1 503 1 545
17 558 9 8 11 12 5 8 -25 -12 -13 27 16 56 20 20 35 27 47 22 12 -4 15 -3 10
5 -5 8 1 11 19 10 17 -2 24 -7 20 -16 -2 -7 0 -10 5 -7 5 3 20 1 32 -5 22 -11
22 -11 -1 8 l-24 20 26 0 c15 0 24 -4 21 -9 -3 -5 0 -9 5 -9 6 0 11 5 11 10 0
6 14 10 31 10 20 0 28 4 23 11 -9 15 -8 114 1 128 3 6 2 11 -4 11 -7 0 -7 8
-1 25 5 14 6 25 2 25 -8 0 -7 63 1 77 3 5 2 15 -2 22 -5 7 -5 28 -1 47 4 18 5
36 2 39 -4 3 -7 16 -7 28 0 21 -5 22 -77 24 -84 1 -122 15 -149 53 -20 29 -35
85 -20 76 5 -4 13 -2 16 4 4 6 1 9 -7 8 -11 -3 -13 92 -15 523 -2 544 -4 592
-29 671 -9 26 -12 53 -8 59 4 8 3 9 -4 5 -10 -6 -45 44 -39 55 1 2 0 3 -2 1
-10 -6 -60 52 -54 62 3 6 3 8 -2 4 -4 -4 -28 4 -53 18 -89 50 -172 61 -459 63
l-263 2 -1 -58z"/>
<path d="M1669 4883 c-13 -16 -12 -17 4 -4 16 13 21 21 13 21 -2 0 -10 -8 -17
-17z"/>
<path d="M1415 4880 c3 -5 11 -10 16 -10 6 0 7 5 4 10 -3 6 -11 10 -16 10 -6
0 -7 -4 -4 -10z"/>
<path d="M1460 4878 c-12 -8 -12 -9 2 -5 9 3 19 1 22 -6 3 -9 5 -9 5 0 1 18
-13 23 -29 11z"/>
<path d="M1503 4873 c0 -7 2 -11 5 -8 3 2 14 0 26 -6 19 -9 19 -9 4 4 -10 8
-16 16 -13 19 3 2 -1 5 -8 5 -8 0 -14 -6 -14 -14z"/>
<path d="M1620 4878 c0 -4 7 -8 15 -8 8 0 15 4 15 8 0 5 -7 9 -15 9 -8 0 -15
-4 -15 -9z"/>
<path d="M5411 4874 c0 -11 3 -14 6 -6 3 7 2 16 -1 19 -3 4 -6 -2 -5 -13z"/>
<path d="M5504 4875 c-5 -13 -9 -13 -23 -3 -14 12 -15 11 -2 -4 17 -22 18 -22
31 2 6 11 8 20 5 20 -3 0 -8 -7 -11 -15z"/>
<path d="M5531 4874 c0 -11 3 -14 6 -6 3 7 2 16 -1 19 -3 4 -6 -2 -5 -13z"/>
<path d="M5553 4875 c0 -8 4 -12 9 -9 5 3 6 10 3 15 -9 13 -12 11 -12 -6z"/>
<path d="M5666 4882 c-2 -4 -1 -14 4 -21 10 -17 31 -5 23 14 -6 16 -19 20 -27
7z"/>
<path d="M5633 4865 c0 -8 4 -15 9 -15 4 0 8 4 8 9 0 6 -4 12 -8 15 -5 3 -9
-1 -9 -9z"/>
<path d="M5430 4866 c0 -2 9 -6 20 -9 11 -3 18 -1 14 4 -5 9 -34 13 -34 5z"/>
<path d="M5588 4863 c6 -2 9 -10 6 -15 -4 -7 -2 -8 5 -4 13 9 5 26 -12 25 -9
0 -8 -2 1 -6z"/>
<path d="M1500 4846 c0 -2 8 -10 18 -17 15 -13 16 -12 3 4 -13 16 -21 21 -21
13z"/>
<path d="M2281 4815 c-1 -6 -44 -10 -111 -9 -113 1 -118 -1 -111 -40 1 -5 -6
-6 -16 -2 -16 5 -16 4 -3 -6 16 -14 24 -92 8 -82 -6 4 -5 -3 1 -14 13 -25 14
-45 2 -37 -5 3 -13 1 -16 -5 -4 -6 -1 -9 6 -8 6 2 13 -10 16 -25 3 -22 1 -27
-9 -21 -10 6 -10 4 -2 -7 14 -20 12 -55 -4 -51 -8 1 -11 -2 -7 -8 3 -6 11 -8
16 -5 5 4 9 -1 9 -10 0 -10 -5 -13 -12 -9 -7 5 -8 3 -3 -7 13 -20 14 -72 1
-88 -8 -11 -8 -13 0 -8 7 4 11 -5 12 -24 0 -19 -3 -27 -10 -23 -7 5 -8 2 -2
-7 11 -18 15 -101 4 -94 -5 3 -12 1 -15 -5 -4 -6 -1 -9 6 -8 8 2 13 -11 15
-35 2 -21 -1 -35 -6 -32 -5 3 -12 1 -15 -5 -4 -6 -1 -9 6 -8 6 2 13 -10 16
-25 3 -22 1 -27 -9 -21 -10 6 -10 4 -2 -7 14 -20 12 -55 -4 -51 -8 1 -11 -2
-7 -8 3 -6 11 -8 16 -5 5 4 9 -1 9 -10 0 -10 -5 -13 -12 -9 -7 5 -8 3 -3 -7
13 -20 14 -72 1 -88 -8 -11 -8 -13 0 -8 7 4 11 -5 12 -24 0 -20 -3 -27 -11
-22 -9 5 -9 3 -1 -8 14 -20 12 -55 -4 -51 -8 1 -11 -2 -7 -8 3 -6 11 -8 16 -5
5 4 9 -1 9 -10 0 -10 -5 -13 -12 -9 -7 5 -8 3 -3 -7 13 -20 14 -72 1 -88 -9
-12 -8 -13 2 -7 10 6 13 3 10 -10 -2 -11 -10 -18 -17 -16 -7 1 -10 -2 -6 -8 3
-6 11 -8 16 -5 5 4 9 -1 9 -10 0 -10 -5 -13 -12 -9 -7 5 -8 3 -3 -7 13 -20 14
-72 1 -88 -9 -12 -8 -13 2 -7 10 6 13 3 10 -10 -2 -11 -10 -18 -17 -16 -7 1
-10 -2 -6 -8 3 -6 11 -8 16 -5 5 4 9 -1 9 -10 0 -10 -5 -13 -12 -9 -7 5 -8 3
-3 -7 13 -20 14 -72 1 -88 -9 -12 -8 -13 2 -7 10 6 13 3 10 -10 -2 -11 -10
-18 -17 -16 -7 1 -10 -2 -6 -8 3 -6 11 -8 16 -5 5 4 9 -1 9 -10 0 -10 -5 -13
-12 -9 -7 5 -8 3 -3 -7 13 -20 14 -72 1 -88 -8 -11 -8 -13 0 -8 7 4 11 -5 12
-24 0 -20 -3 -27 -11 -22 -9 5 -9 3 -1 -8 14 -20 12 -55 -4 -51 -8 1 -11 -2
-7 -8 3 -6 11 -8 16 -5 5 4 9 -1 9 -10 0 -10 -5 -13 -12 -9 -7 5 -8 3 -3 -7
13 -20 14 -72 1 -88 -8 -11 -8 -13 0 -8 7 4 11 -5 12 -24 0 -19 -3 -27 -10
-23 -7 5 -8 2 -2 -7 11 -18 15 -101 4 -94 -5 3 -12 1 -15 -5 -4 -6 -1 -9 6 -8
8 2 13 -11 15 -35 2 -21 -1 -35 -6 -32 -5 3 -12 1 -15 -5 -4 -6 -1 -9 6 -8 6
2 13 -10 16 -25 3 -22 1 -27 -9 -21 -10 6 -10 4 -2 -7 14 -20 12 -55 -4 -51
-8 1 -11 -2 -7 -8 3 -6 11 -8 16 -5 5 4 9 -1 9 -10 0 -10 -5 -13 -12 -9 -7 5
-8 3 -3 -7 13 -20 14 -72 1 -88 -8 -11 -8 -13 0 -8 7 4 11 -5 12 -24 0 -19 -3
-27 -10 -23 -7 5 -8 2 -2 -7 11 -18 15 -101 4 -94 -5 3 -12 1 -15 -5 -4 -6 -3
-10 2 -9 22 4 24 -3 7 -23 -12 -14 -13 -18 -3 -10 9 6 19 8 23 4 4 -4 40 -8
79 -9 93 -2 89 -1 81 -15 -4 -7 1 -5 12 4 19 16 20 16 21 -3 1 -12 -3 -17 -9
-13 -7 4 -8 2 -4 -5 10 -15 26 -4 26 17 0 15 14 17 113 17 102 0 113 -2 114
-18 2 -16 0 -17 -15 -5 -15 12 -16 11 -3 -4 15 -20 31 -15 31 10 0 16 12 18
115 16 123 -3 121 -4 115 50 -1 12 2 16 11 11 8 -6 10 -4 3 6 -11 18 -15 101
-4 94 5 -3 12 -1 15 5 4 6 1 9 -6 8 -6 -2 -14 3 -17 11 -3 9 0 11 8 6 9 -6 9
-3 1 13 -13 25 -14 45 -2 37 5 -3 13 -1 16 5 4 6 1 9 -7 8 -7 -2 -13 4 -13 12
0 8 6 14 13 12 8 -1 11 2 7 8 -3 6 -11 8 -16 5 -5 -4 -9 1 -9 10 0 10 5 13 12
9 7 -5 8 -3 3 7 -13 20 -14 72 -1 88 9 12 8 13 -2 7 -10 -6 -13 -3 -10 10 2
11 10 18 17 16 7 -1 10 2 6 8 -3 6 -11 8 -16 5 -5 -4 -9 1 -9 10 0 10 5 13 12
9 7 -5 8 -3 3 7 -13 20 -14 72 -1 88 8 11 8 13 0 8 -8 -4 -11 7 -11 33 0 22 3
37 8 35 4 -3 11 -1 14 5 4 6 1 9 -6 8 -6 -2 -14 3 -17 11 -3 9 0 11 8 6 9 -6
9 -3 1 13 -13 25 -14 45 -2 37 5 -3 13 -1 16 5 4 6 1 9 -6 8 -6 -2 -13 10 -16
25 -3 22 -1 27 9 21 10 -6 10 -4 2 7 -14 20 -12 55 4 51 8 -1 11 2 7 8 -3 6
-11 8 -16 5 -5 -4 -9 1 -9 10 0 10 5 13 12 9 7 -5 8 -3 3 6 -16 26 -14 80 4
91 14 9 14 10 -1 5 -26 -8 -23 20 5 39 l22 17 -22 -7 c-13 -3 -23 -3 -23 2 0
5 29 9 65 9 36 1 65 -2 65 -7 0 -5 5 -9 11 -9 5 0 8 4 5 9 -3 4 19 8 49 8 35
-1 52 -4 48 -11 -4 -6 1 -5 10 3 11 9 17 10 17 2 0 -6 5 -11 11 -11 5 0 7 5 4
10 -3 6 1 10 10 10 10 0 13 -5 9 -12 -6 -10 -5 -10 7 -1 18 14 100 13 91 -2
-3 -5 2 -4 11 4 11 9 17 10 17 2 0 -6 5 -11 11 -11 5 0 7 5 4 10 -3 6 1 10 10
10 10 0 13 -5 9 -12 -6 -10 -5 -10 7 -1 18 14 100 13 91 -2 -3 -5 2 -4 11 4
11 9 17 10 17 2 0 -6 5 -11 11 -11 5 0 7 5 4 10 -3 6 1 10 10 10 10 0 13 -5 9
-12 -6 -10 -5 -10 7 -1 18 14 100 13 91 -2 -3 -5 2 -4 11 4 11 9 17 10 17 2 0
-6 5 -11 11 -11 5 0 7 5 4 10 -3 6 1 10 10 10 10 0 13 -5 9 -12 -6 -10 -5 -10
7 -1 18 14 100 13 91 -2 -3 -5 2 -4 11 4 11 9 17 10 17 2 0 -6 5 -11 11 -11 5
0 7 5 4 10 -3 6 1 10 10 10 10 0 13 -5 9 -12 -6 -10 -5 -10 7 -1 18 14 100 13
91 -2 -3 -5 2 -4 11 4 11 9 17 10 17 2 0 -6 5 -11 11 -11 5 0 8 4 5 8 -3 5 26
9 64 9 38 0 67 -4 65 -8 -3 -4 2 -9 10 -12 9 -4 12 -1 9 8 -4 10 2 13 23 12
22 -2 27 -7 25 -22 -2 -16 -1 -17 7 -5 5 8 8 17 6 20 -2 4 36 7 85 7 50 0 90
-3 90 -7 0 -4 7 -11 16 -14 13 -5 14 -4 6 7 -9 10 -8 14 2 14 17 0 20 -185 3
-206 -9 -12 -9 -13 1 -7 8 5 12 -1 12 -18 0 -14 -6 -26 -12 -26 -9 0 -9 -3 -2
-8 15 -10 17 -82 2 -100 -10 -12 -10 -14 0 -8 8 5 12 -1 12 -18 0 -14 -6 -26
-12 -26 -10 0 -10 -2 -1 -8 16 -10 16 -395 0 -386 -8 5 -8 2 1 -7 7 -7 12 -40
12 -77 0 -60 -1 -63 -17 -51 -15 12 -15 10 1 -8 13 -16 17 -33 14 -63 -3 -30
-1 -38 7 -28 7 9 35 13 86 13 65 0 75 -2 76 -18 2 -16 0 -17 -15 -5 -15 12
-16 11 -3 -4 15 -20 31 -15 31 10 0 15 11 17 85 16 71 -1 88 -5 100 -20 13
-18 14 -17 9 6 -2 14 -2 20 2 13 3 -8 13 -9 27 -5 41 14 107 6 122 -14 13 -18
14 -18 9 6 -2 14 -2 20 1 14 4 -7 22 -8 52 -4 25 4 53 6 62 4 38 -9 43 9 45
153 1 108 4 144 16 159 14 18 14 18 -2 5 -17 -13 -23 -8 -18 14 1 6 3 71 3
146 2 104 6 140 17 155 14 18 14 18 -2 5 -17 -13 -23 -8 -18 14 1 6 3 71 3
146 2 104 6 140 17 155 14 18 14 18 -2 5 -17 -13 -23 -8 -18 14 1 6 3 71 3
146 2 104 6 140 17 155 14 18 14 18 -2 5 -17 -13 -23 -8 -18 14 1 6 3 71 3
146 2 104 6 140 17 155 14 18 14 18 -2 5 -17 -13 -23 -8 -18 14 1 6 3 71 3
146 2 104 6 140 17 155 14 18 14 18 -2 5 -17 -13 -23 -8 -18 14 1 6 3 71 3
146 2 104 6 140 17 155 14 17 13 18 -1 7 -22 -18 -27 -9 -20 35 4 20 6 81 5
134 -1 71 1 96 10 91 6 -3 6 0 -1 8 -7 7 -13 20 -13 29 0 15 -27 17 -285 16
-184 -1 -285 3 -285 9 0 7 -3 7 -8 0 -4 -6 -31 -10 -59 -9 l-53 0 0 -56 c0
-31 -6 -62 -12 -69 -10 -11 -10 -13 0 -7 8 5 12 -1 12 -18 0 -14 -6 -26 -12
-26 -9 0 -9 -3 -2 -8 15 -10 17 -82 2 -100 -10 -12 -10 -14 0 -8 8 5 12 -1 12
-18 0 -14 -6 -26 -12 -26 -9 0 -9 -3 -2 -8 15 -10 17 -82 2 -100 -10 -12 -10
-14 0 -8 8 5 12 -1 12 -18 0 -14 -6 -26 -12 -26 -9 0 -9 -3 -2 -8 15 -10 17
-82 2 -100 -10 -12 -10 -14 0 -8 8 5 12 -1 12 -18 0 -14 -6 -26 -12 -26 -9 0
-10 -3 -2 -8 6 -4 12 -36 13 -70 2 -50 -1 -62 -11 -56 -10 5 -11 4 0 -7 6 -7
12 -32 12 -56 l0 -43 -755 0 c-651 0 -755 2 -755 14 0 10 8 13 21 11 12 -3 18
-1 15 3 -4 4 -13 7 -18 7 -6 0 -13 13 -15 28 -3 22 -1 27 9 21 10 -6 10 -4 2
7 -14 20 -12 55 4 51 8 -1 11 2 7 8 -3 6 -11 8 -16 5 -5 -4 -9 1 -9 10 0 10 5
13 12 9 7 -5 8 -3 3 7 -13 20 -14 72 -1 88 8 11 8 13 0 8 -7 -4 -11 5 -12 24
0 19 3 27 10 23 7 -5 8 -2 2 7 -11 18 -15 101 -4 94 5 -3 12 -1 15 5 4 6 1 9
-6 8 -6 -2 -14 3 -17 11 -3 9 0 11 8 6 9 -6 9 -3 1 13 -13 25 -14 45 -2 37 5
-3 13 -1 16 5 4 6 1 9 -6 8 -8 -2 -13 11 -15 35 -2 21 1 35 6 32 5 -3 12 -1
15 5 4 6 1 9 -6 8 -6 -2 -14 3 -17 11 -3 9 0 11 8 6 9 -6 9 -3 1 13 -13 25
-14 45 -2 37 5 -3 13 -1 16 5 4 6 1 9 -6 8 -6 -2 -13 10 -16 25 -3 22 -1 27 9
21 10 -6 10 -5 2 7 -17 22 -14 93 5 101 14 6 14 7 -1 7 -11 1 -18 9 -18 22 0
13 4 18 13 13 9 -6 9 -4 -1 8 -11 13 -44 15 -237 14 -142 -1 -227 3 -229 9 -3
7 -5 7 -5 0z"/>
<path d="M5670 4796 c0 -2 8 -10 18 -17 15 -13 16 -12 3 4 -13 16 -21 21 -21
13z"/>
<path d="M6256 4782 c-3 -5 1 -9 9 -9 8 0 12 4 9 9 -3 4 -7 8 -9 8 -2 0 -6 -4
-9 -8z"/>
<path d="M1307 4759 c7 -7 15 -10 18 -7 3 3 -2 9 -12 12 -14 6 -15 5 -6 -5z"/>
<path d="M2750 4700 c0 -5 5 -10 11 -10 5 0 7 5 4 10 -3 6 -8 10 -11 10 -2 0
-4 -4 -4 -10z"/>
<path d="M6256 4098 c3 -5 10 -6 15 -3 13 9 11 12 -6 12 -8 0 -12 -4 -9 -9z"/>
<path d="M6256 3982 c-3 -5 1 -9 9 -9 8 0 12 4 9 9 -3 4 -7 8 -9 8 -2 0 -6 -4
-9 -8z"/>
<path d="M1208 3673 c6 -2 9 -10 6 -15 -4 -7 -2 -8 5 -4 13 9 5 26 -12 25 -9
0 -8 -2 1 -6z"/>
<path d="M1193 3635 c0 -8 4 -12 9 -9 5 3 6 10 3 15 -9 13 -12 11 -12 -6z"/>
<path d="M5796 3622 c-2 -4 -1 -14 4 -22 7 -11 9 -9 7 8 -1 24 -3 26 -11 14z"/>
<path d="M1150 3610 c8 -5 20 -10 25 -10 6 0 3 5 -5 10 -8 5 -19 10 -25 10 -5
0 -3 -5 5 -10z"/>
<path d="M5850 3600 c0 -5 5 -10 10 -10 6 0 10 5 10 10 0 6 -4 10 -10 10 -5 0
-10 -4 -10 -10z"/>
<path d="M1100 3586 c0 -2 7 -7 16 -10 8 -3 12 -2 9 4 -6 10 -25 14 -25 6z"/>
<path d="M1083 3565 c0 -7 6 -11 14 -8 7 3 13 6 13 8 0 2 -6 5 -13 8 -8 3 -14
-1 -14 -8z"/>
<path d="M5873 3565 c0 -7 6 -11 14 -8 7 3 13 6 13 8 0 2 -6 5 -13 8 -8 3 -14
-1 -14 -8z"/>
<path d="M564 3329 c1 -7 10 -13 19 -15 9 -1 15 2 11 7 -3 5 -9 7 -14 4 -4 -3
-11 0 -13 5 -3 6 -4 5 -3 -1z"/>
<path d="M616 3323 c-6 -14 -5 -15 5 -6 7 7 10 15 7 18 -3 3 -9 -2 -12 -12z"/>
<path d="M653 3323 c2 -12 7 -26 12 -30 4 -5 5 -2 1 5 -7 12 4 16 34 13 13 -2
13 -1 0 8 -8 5 -18 7 -23 4 -5 -3 -13 1 -18 8 -7 10 -8 8 -6 -8z"/>
<path d="M6270 3288 c-9 -20 -9 -21 2 -7 7 9 19 14 27 11 8 -3 11 0 7 7 -11
17 -24 13 -36 -11z"/>
<path d="M2836 3272 c-3 -5 1 -9 9 -9 8 0 12 4 9 9 -3 4 -7 8 -9 8 -2 0 -6 -4
-9 -8z"/>
<path d="M2910 3270 c-8 -5 -10 -10 -5 -10 6 0 17 5 25 10 8 5 11 10 5 10 -5
0 -17 -5 -25 -10z"/>
<path d="M3070 3270 c-8 -5 -10 -10 -5 -10 6 0 17 5 25 10 8 5 11 10 5 10 -5
0 -17 -5 -25 -10z"/>
<path d="M3230 3270 c-8 -5 -10 -10 -5 -10 6 0 17 5 25 10 8 5 11 10 5 10 -5
0 -17 -5 -25 -10z"/>
<path d="M3390 3270 c-8 -5 -10 -10 -5 -10 6 0 17 5 25 10 8 5 11 10 5 10 -5
0 -17 -5 -25 -10z"/>
<path d="M3550 3270 c-8 -5 -10 -10 -5 -10 6 0 17 5 25 10 8 5 11 10 5 10 -5
0 -17 -5 -25 -10z"/>
<path d="M3710 3270 c-8 -5 -10 -10 -5 -10 6 0 17 5 25 10 8 5 11 10 5 10 -5
0 -17 -5 -25 -10z"/>
<path d="M3995 3270 c-3 -5 -1 -10 4 -10 6 0 11 5 11 10 0 6 -2 10 -4 10 -3 0
-8 -4 -11 -10z"/>
<path d="M4070 3269 c0 -5 5 -7 10 -4 6 3 10 8 10 11 0 2 -4 4 -10 4 -5 0 -10
-5 -10 -11z"/>
<path d="M4110 3270 c-8 -5 -10 -10 -5 -10 6 0 17 5 25 10 8 5 11 10 5 10 -5
0 -17 -5 -25 -10z"/>
<path d="M6295 3271 c-3 -5 -2 -12 3 -15 5 -3 9 1 9 9 0 17 -3 19 -12 6z"/>
<path d="M3840 3260 c-9 -6 -10 -10 -3 -10 6 0 15 5 18 10 8 12 4 12 -15 0z"/>
<path d="M3916 3258 c3 -5 10 -6 15 -3 13 9 11 12 -6 12 -8 0 -12 -4 -9 -9z"/>
<path d="M4155 3260 c3 -5 8 -10 11 -10 2 0 4 5 4 10 0 6 -5 10 -11 10 -5 0
-7 -4 -4 -10z"/>
<path d="M4096 3238 c3 -5 10 -6 15 -3 13 9 11 12 -6 12 -8 0 -12 -4 -9 -9z"/>
<path d="M4215 3240 c-3 -5 -1 -10 4 -10 6 0 11 5 11 10 0 6 -2 10 -4 10 -3 0
-8 -4 -11 -10z"/>
<path d="M6250 3181 c0 -6 4 -13 10 -16 6 -3 7 1 4 9 -7 18 -14 21 -14 7z"/>
<path d="M6256 2818 c3 -5 10 -6 15 -3 13 9 11 12 -6 12 -8 0 -12 -4 -9 -9z"/>
<path d="M6256 2702 c-3 -5 1 -9 9 -9 8 0 12 4 9 9 -3 4 -7 8 -9 8 -2 0 -6 -4
-9 -8z"/>
<path d="M6256 2338 c3 -5 10 -6 15 -3 13 9 11 12 -6 12 -8 0 -12 -4 -9 -9z"/>
<path d="M2079 2233 c-13 -16 -12 -17 4 -4 9 7 17 15 17 17 0 8 -8 3 -21 -13z"/>
<path d="M2195 2240 c-3 -5 -1 -10 4 -10 6 0 11 5 11 10 0 6 -2 10 -4 10 -3 0
-8 -4 -11 -10z"/>
<path d="M2290 2245 c0 -2 15 -12 33 -20 l32 -16 -25 20 c-24 20 -40 26 -40
16z"/>
<path d="M2384 2235 c-5 -13 -9 -13 -23 -3 -14 12 -15 11 -2 -4 16 -22 13 -22
34 2 9 11 12 20 7 20 -6 0 -13 -7 -16 -15z"/>
<path d="M2525 2241 c-3 -5 -2 -12 3 -15 5 -3 9 1 9 9 0 17 -3 19 -12 6z"/>
<path d="M2580 2238 c-12 -8 -12 -9 2 -5 9 3 19 1 22 -6 3 -9 5 -9 5 0 1 18
-13 23 -29 11z"/>
<path d="M2623 2235 c0 -8 4 -12 9 -9 5 3 6 10 3 15 -9 13 -12 11 -12 -6z"/>
<path d="M2656 2235 c-9 -26 -7 -32 5 -12 6 10 9 21 6 23 -2 3 -7 -2 -11 -11z"/>
<path d="M2687 2239 c7 -7 15 -10 18 -7 3 3 -2 9 -12 12 -14 6 -15 5 -6 -5z"/>
<path d="M4313 2230 c1 -11 5 -20 9 -20 3 0 6 9 5 20 -1 11 -5 20 -9 20 -3 0
-6 -9 -5 -20z"/>
<path d="M4445 2241 c-3 -5 -2 -12 3 -15 5 -3 9 1 9 9 0 17 -3 19 -12 6z"/>
<path d="M4500 2238 c-12 -8 -12 -9 2 -5 9 3 19 1 22 -6 3 -9 5 -9 5 0 1 18
-13 23 -29 11z"/>
<path d="M4543 2235 c0 -8 4 -12 9 -9 5 3 6 10 3 15 -9 13 -12 11 -12 -6z"/>
<path d="M4576 2235 c-9 -26 -7 -32 5 -12 6 10 9 21 6 23 -2 3 -7 -2 -11 -11z"/>
<path d="M4660 2238 c-12 -8 -12 -9 2 -5 9 3 19 1 22 -6 3 -9 5 -9 5 0 1 18
-13 23 -29 11z"/>
<path d="M4703 2235 c0 -8 4 -12 9 -9 5 3 6 10 3 15 -9 13 -12 11 -12 -6z"/>
<path d="M4736 2235 c-9 -26 -7 -32 5 -12 6 10 9 21 6 23 -2 3 -7 -2 -11 -11z"/>
<path d="M4864 2235 c-5 -13 -9 -13 -23 -3 -14 12 -15 11 -2 -5 13 -17 16 -17
26 -3 7 9 15 13 18 9 4 -3 7 -1 7 5 0 17 -20 15 -26 -3z"/>
<path d="M4911 2230 c-13 -11 -19 -20 -14 -20 6 0 18 9 28 20 23 25 17 25 -14
0z"/>
<path d="M4950 2239 c0 -5 5 -7 10 -4 6 3 10 8 10 11 0 2 -4 4 -10 4 -5 0 -10
-5 -10 -11z"/>
<path d="M2428 2233 c6 -2 10 -8 8 -12 -3 -4 4 -7 15 -7 19 0 19 1 3 13 -10 7
-23 13 -28 12 -6 0 -5 -3 2 -6z"/>
<path d="M4348 2233 c6 -2 10 -8 8 -12 -3 -4 4 -7 15 -7 19 0 19 1 3 13 -10 7
-23 13 -28 12 -6 0 -5 -3 2 -6z"/>
<path d="M2110 2220 c0 -5 5 -10 11 -10 5 0 7 5 4 10 -3 6 -8 10 -11 10 -2 0
-4 -4 -4 -10z"/>
<path d="M2160 2220 c-9 -6 -10 -10 -3 -10 6 0 15 5 18 10 8 12 4 12 -15 0z"/>
<path d="M4800 2226 c0 -2 7 -7 16 -10 8 -3 12 -2 9 4 -6 10 -25 14 -25 6z"/>
<path d="M6256 2222 c-3 -5 1 -9 9 -9 8 0 12 4 9 9 -3 4 -7 8 -9 8 -2 0 -6 -4
-9 -8z"/>
<path d="M4635 2200 c3 -5 8 -10 11 -10 2 0 4 5 4 10 0 6 -5 10 -11 10 -5 0
-7 -4 -4 -10z"/>
<path d="M750 1996 c0 -2 8 -10 18 -17 15 -13 16 -12 3 4 -13 16 -21 21 -21
13z"/>
<path d="M6136 1858 c3 -5 10 -6 15 -3 13 9 11 12 -6 12 -8 0 -12 -4 -9 -9z"/>
<path d="M6111 1832 c-7 -13 -6 -19 2 -19 7 0 13 9 13 19 0 10 -1 18 -3 18 -1
0 -7 -8 -12 -18z"/>
<path d="M875 1820 c-3 -5 -1 -10 4 -10 6 0 11 5 11 10 0 6 -2 10 -4 10 -3 0
-8 -4 -11 -10z"/>
<path d="M915 1800 c-3 -5 -1 -10 4 -10 6 0 11 5 11 10 0 6 -2 10 -4 10 -3 0
-8 -4 -11 -10z"/>
<path d="M979 1788 c0 -2 -2 -11 -4 -21 -3 -15 -1 -16 11 -6 7 6 11 15 8 20
-5 9 -13 12 -15 7z"/>
<path d="M6015 1781 c6 -11 4 -13 -8 -8 -23 9 -21 0 2 -13 15 -7 19 -7 17 5
-1 8 -6 18 -11 22 -4 5 -5 2 0 -6z"/>
<path d="M1090 1745 c14 -17 13 -18 -4 -11 -19 7 -19 6 -1 -14 21 -24 26 -25
19 -6 -7 19 16 32 27 15 7 -11 9 -11 9 -1 0 8 5 10 13 6 7 -4 9 -3 4 2 -5 5
-18 9 -30 9 -12 1 -29 5 -37 10 -13 8 -13 7 0 -10z"/>
<path d="M1193 1721 c0 -11 5 -18 9 -15 4 3 5 11 1 19 -7 21 -12 19 -10 -4z"/>
<path d="M1309 1723 c-13 -17 -13 -17 6 -3 11 8 22 16 24 17 2 2 0 3 -6 3 -6
0 -17 -8 -24 -17z"/>
<path d="M1355 1730 c-3 -6 1 -7 9 -4 18 7 21 14 7 14 -6 0 -13 -4 -16 -10z"/>
<path d="M1390 1736 c0 -2 8 -10 18 -17 15 -13 16 -12 3 4 -13 16 -21 21 -21
13z"/>
<path d="M1593 1727 c0 -8 6 -14 14 -14 9 0 10 4 2 14 -6 7 -12 13 -14 13 -1
0 -2 -6 -2 -13z"/>
<path d="M5401 1731 c-8 -5 -9 -11 -3 -15 5 -3 12 1 16 9 6 17 6 18 -13 6z"/>
<path d="M5469 1723 c-13 -17 -13 -17 6 -3 11 8 22 16 24 17 2 2 0 3 -6 3 -6
0 -17 -8 -24 -17z"/>
<path d="M5515 1730 c-3 -6 1 -7 9 -4 18 7 21 14 7 14 -6 0 -13 -4 -16 -10z"/>
<path d="M5550 1736 c0 -2 8 -10 18 -17 15 -13 16 -12 3 4 -13 16 -21 21 -21
13z"/>
<path d="M5753 1723 c0 -7 4 -13 8 -13 4 0 9 6 12 13 3 8 0 14 -7 14 -7 0 -13
-6 -13 -14z"/>
<path d="M5821 1731 c-8 -5 -9 -11 -3 -15 5 -3 12 1 16 9 6 17 6 18 -13 6z"/>
<path d="M1556 1714 c-5 -14 -4 -15 9 -4 17 14 19 20 6 20 -5 0 -12 -7 -15
-16z"/>
<path d="M5716 1714 c-5 -14 -4 -15 9 -4 17 14 19 20 6 20 -5 0 -12 -7 -15
-16z"/>
<path d="M5870 1726 c0 -2 7 -7 16 -10 8 -3 12 -2 9 4 -6 10 -25 14 -25 6z"/>
<path d="M1375 1700 c-3 -5 -1 -10 4 -10 6 0 11 5 11 10 0 6 -2 10 -4 10 -3 0
-8 -4 -11 -10z"/>
<path d="M1510 1699 c0 -5 5 -7 10 -4 6 3 10 8 10 11 0 2 -4 4 -10 4 -5 0 -10
-5 -10 -11z"/>
<path d="M5535 1700 c-3 -5 -1 -10 4 -10 6 0 11 5 11 10 0 6 -2 10 -4 10 -3 0
-8 -4 -11 -10z"/>
<path d="M5670 1699 c0 -5 5 -7 10 -4 6 3 10 8 10 11 0 2 -4 4 -10 4 -5 0 -10
-5 -10 -11z"/>
</g>
</svg>
